<svg width="267" height="276" viewBox="0 0 267 276" fill="none" xmlns="http://www.w3.org/2000/svg">
<g filter="url(#filter0_i_173_107)">
<path d="M7.42479 268.102C45.6222 189.178 29.0821 115.925 11.0373 90.7363C11.6449 93.3616 22.4196 111.887 23.6054 133.317C25.2298 162.672 25.516 164.487 24.155 189.033C22.794 213.58 9.1523 257.044 1.47147 267.577C-7.59206 261.662 -35.7651 234.629 -45.9677 219.045C-54.1298 206.577 -54.4413 172.983 -53.5769 157.744C-51.2875 146.143 -43.4796 119.359 -30.5633 105.035C-17.647 90.7112 -10.0245 62.2547 -7.82783 49.817C-0.0394821 54.2559 32.3597 94.1334 44.6572 115.124C56.9547 136.116 65.5966 166.796 62.4046 200.485C59.851 227.436 21.3541 257.841 7.42479 268.102Z" fill="#6DBD38"/>
</g>
<path d="M46.1547 241.335C41.7019 247.795 19.5094 265.449 8.96968 273.469C25.966 288.166 41.9144 298.269 85.3656 309.178C132.746 321.073 200.803 298.661 230.116 282.207C226.849 281.078 218.768 277.03 212.579 269.868C204.843 260.916 204.999 257.517 184.015 236.815C163.032 216.113 151.532 214.537 128.263 207.496C109.648 201.862 79.638 205.182 66.9601 207.546C66.2207 211.622 60.803 222.891 58.1866 228.016C125.435 218.978 176.005 248.491 192.884 264.377C145.907 231.015 75.4907 235.115 46.1547 241.335Z" fill="#14864B"/>
<g filter="url(#filter1_i_173_107)">
<path d="M86.3445 178.078C80.934 182.754 78.007 191.298 76.8945 195.18C68.1382 185.048 61.9374 165.146 66.1335 153.1C70.3297 141.054 82.6797 129.694 97.1795 112.867C108.779 99.4062 110.735 78.6425 110.262 69.9432C124.295 105.072 123.958 143.855 121.949 156.245C120.776 163.483 118.94 172.249 107.052 189.911C97.5423 204.04 84.5432 201.115 79.2748 197.935C103.966 176.597 115.048 154.82 112.652 130.771C109.354 155.788 103.77 162.848 99.6831 167.067C95.5964 171.286 91.5814 173.553 86.3445 178.078Z" fill="#6DBD38"/>
</g>
<defs>
<filter id="filter0_i_173_107" x="-128.906" y="-36.183" width="191.978" height="304.286" filterUnits="userSpaceOnUse" color-interpolation-filters="sRGB">
<feFlood flood-opacity="0" result="BackgroundImageFix"/>
<feBlend mode="normal" in="SourceGraphic" in2="BackgroundImageFix" result="shape"/>
<feColorMatrix in="SourceAlpha" type="matrix" values="0 0 0 0 0 0 0 0 0 0 0 0 0 0 0 0 0 0 127 0" result="hardAlpha"/>
<feOffset dx="-75" dy="-151"/>
<feGaussianBlur stdDeviation="43"/>
<feComposite in2="hardAlpha" operator="arithmetic" k2="-1" k3="1"/>
<feColorMatrix type="matrix" values="0 0 0 0 0.188235 0 0 0 0 0.482353 0 0 0 0 0.164706 0 0 0 1 0"/>
<feBlend mode="normal" in2="shape" result="effect1_innerShadow_173_107"/>
</filter>
<filter id="filter1_i_173_107" x="-10.21" y="-16.0568" width="133.176" height="216.619" filterUnits="userSpaceOnUse" color-interpolation-filters="sRGB">
<feFlood flood-opacity="0" result="BackgroundImageFix"/>
<feBlend mode="normal" in="SourceGraphic" in2="BackgroundImageFix" result="shape"/>
<feColorMatrix in="SourceAlpha" type="matrix" values="0 0 0 0 0 0 0 0 0 0 0 0 0 0 0 0 0 0 127 0" result="hardAlpha"/>
<feOffset dx="-75" dy="-151"/>
<feGaussianBlur stdDeviation="43"/>
<feComposite in2="hardAlpha" operator="arithmetic" k2="-1" k3="1"/>
<feColorMatrix type="matrix" values="0 0 0 0 0.188235 0 0 0 0 0.482353 0 0 0 0 0.164706 0 0 0 1 0"/>
<feBlend mode="normal" in2="shape" result="effect1_innerShadow_173_107"/>
</filter>
</defs>
</svg>
